<svg width="24" height="24" viewBox="0 0 24 24" fill="none" xmlns="http://www.w3.org/2000/svg">
<g clip-path="url(#clip0_587_669)">
<path d="M6.46997 5.00051C6.46971 5.53094 6.25874 6.03955 5.88348 6.41443C5.50822 6.78932 4.9994 6.99978 4.46897 6.99951C3.93854 6.99925 3.42994 6.78828 3.05505 6.41302C2.68016 6.03776 2.46971 5.52895 2.46997 4.99851C2.47024 4.46808 2.6812 3.95948 3.05646 3.58459C3.43172 3.20971 3.94054 2.99925 4.47097 2.99951C5.0014 2.99978 5.51001 3.21075 5.88489 3.58601C6.25978 3.96127 6.47024 4.47008 6.46997 5.00051ZM6.52997 8.48051H2.52997V21.0005H6.52997V8.48051ZM12.85 8.48051H8.86997V21.0005H12.81V14.4305C12.81 10.7705 17.58 10.4305 17.58 14.4305V21.0005H21.53V13.0705C21.53 6.90051 14.47 7.13051 12.81 10.1605L12.85 8.48051Z" fill="#BABABA"/>
</g>
<defs>
<clipPath id="clip0_587_669">
<rect width="24" height="24" fill="white"/>
</clipPath>
</defs>
</svg>
