<svg width="85" height="85" viewBox="0 0 85 85" fill="none" xmlns="http://www.w3.org/2000/svg">
<path d="M42.3706 34L16.7529 67.5H0.5V0.5H16.7529L42.3706 34Z" stroke="#363636"/>
<path d="M42.6294 34L68.2471 67.5H84.5V0.5H68.2471L42.6294 34Z" stroke="#363636"/>
<path opacity="0.5" d="M6.92733 77.8594L4.41438 80.8215H4.22328L1.69122 77.869V83H0.926829V76.6651H1.68167L4.31883 79.8182L6.94644 76.6651H7.69173V83H6.92733V77.8594ZM18.7981 83H18.0337V80.1049H14.2213V83H13.4569V76.6651H14.2213V79.4073H18.0337V76.6651H18.7981V83ZM30.7442 83V76.6651H33.3336C35.4548 76.6651 36.5345 77.9645 36.5345 79.8373C36.5345 81.8152 35.4166 83 33.3241 83H30.7442ZM33.2858 77.3721H31.5086V82.2929H33.2858C34.9197 82.2929 35.751 81.4139 35.751 79.8373C35.751 78.2799 34.9006 77.3721 33.2858 77.3721ZM46.5183 82.3025V83H41.8746V76.6651H46.4132V77.3626H42.639V79.3978H45.9259V80.0953H42.639V82.3025H46.5183ZM54.0651 80.296L52.995 79.9615C52.1446 79.7035 51.428 79.2736 51.428 78.385C51.428 77.267 52.2688 76.5695 53.6829 76.5695C54.3422 76.5695 54.9633 76.6842 55.5462 76.9135L55.4697 77.6301C54.9824 77.4008 54.3231 77.267 53.7498 77.267C52.8039 77.267 52.2401 77.6492 52.2401 78.3085C52.2401 78.5474 52.3357 78.7576 52.4504 78.8818C52.6606 79.092 52.9568 79.1685 53.2816 79.2831C53.3103 79.2927 53.339 79.2927 53.3485 79.3022L54.3422 79.6176C55.4124 79.9711 55.871 80.4297 55.871 81.2801C55.871 81.8247 55.6608 82.2643 55.25 82.5987C54.8391 82.9331 54.2849 83.0955 53.5874 83.0955C53.2148 83.0955 52.823 83.0573 52.4217 82.9809C52.0204 82.8949 51.686 82.7898 51.4089 82.656L51.4853 81.9298C51.7624 82.0636 52.0873 82.1783 52.4695 82.2643C52.8517 82.3503 53.2052 82.3885 53.5205 82.3885C54.4664 82.3885 55.0684 81.9872 55.0684 81.2992C55.0684 80.8024 54.7913 80.5253 54.0651 80.296ZM61.8765 83H61.1121V76.6651H61.8765V83ZM72.9356 77.0282L72.8687 77.7543C72.4482 77.5346 71.6743 77.3053 70.9003 77.3053C70.0308 77.3053 69.3238 77.5346 68.7983 78.0028C68.2727 78.471 68.0052 79.0729 68.0052 79.8278C68.0052 80.5826 68.2727 81.2037 68.7983 81.6719C69.3333 82.1401 70.0308 82.3694 70.9003 82.3694C71.5692 82.3694 72.0852 82.2738 72.4387 82.0827V80.2291H70.3653V79.5411H73.184V82.57C72.6011 82.9236 71.8463 83.0955 70.9386 83.0955C69.8206 83.0955 68.9129 82.7993 68.225 82.1974C67.5466 81.5954 67.2026 80.8024 67.2026 79.8373C67.2026 78.8627 67.537 78.0792 68.2154 77.4772C68.8938 76.8753 69.792 76.5791 70.9003 76.5791C71.6552 76.5791 72.3336 76.732 72.9356 77.0282ZM83.754 76.6651H84.5279V83H83.7158L79.416 77.8212V83H78.6421V76.6651H79.4447L83.754 81.8534V76.6651Z" fill="#363636"/>
</svg>
