<svg width="45" height="45" viewBox="0 0 45 45" fill="none" xmlns="http://www.w3.org/2000/svg">
<path d="M22.1353 18L8.75291 35.5H0.5V0.5H8.75291L22.1353 18Z" stroke="#363636"/>
<path d="M22.8647 18L36.2471 35.5H44.5V0.5H36.2471L22.8647 18Z" stroke="#363636"/>
<path opacity="0.5" d="M44.5877 40.4035H45V43.7779H44.5674L42.2771 41.0193V43.7779H41.8648V40.4035H42.2923L44.5877 43.1671V40.4035Z" fill="#363636"/>
<path opacity="0.5" d="M38.8251 40.5969L38.7895 40.9837C38.5656 40.8666 38.1533 40.7445 37.741 40.7445C37.2779 40.7445 36.9013 40.8666 36.6213 41.116C36.3414 41.3654 36.1989 41.6861 36.1989 42.0881C36.1989 42.4902 36.3414 42.821 36.6213 43.0704C36.9063 43.3198 37.2779 43.442 37.741 43.442C38.0973 43.442 38.3721 43.3911 38.5605 43.2893V42.3019H37.456V41.9354H38.9575V43.5488C38.647 43.7372 38.2449 43.8288 37.7614 43.8288C37.1659 43.8288 36.6824 43.671 36.3159 43.3504C35.9546 43.0297 35.7714 42.6073 35.7714 42.0932C35.7714 41.5741 35.9495 41.1567 36.3109 40.8361C36.6722 40.5154 37.1506 40.3577 37.741 40.3577C38.1431 40.3577 38.5045 40.4391 38.8251 40.5969Z" fill="#363636"/>
<path opacity="0.5" d="M32.9343 43.7779H32.5272V40.4035H32.9343V43.7779Z" fill="#363636"/>
<path opacity="0.5" d="M28.7735 42.3375L28.2034 42.1594C27.7505 42.022 27.3687 41.7929 27.3687 41.3196C27.3687 40.7241 27.8166 40.3526 28.5699 40.3526C28.9211 40.3526 29.2519 40.4137 29.5623 40.5358L29.5216 40.9175C29.2621 40.7954 28.9109 40.7241 28.6055 40.7241C28.1016 40.7241 27.8013 40.9277 27.8013 41.2789C27.8013 41.4061 27.8522 41.5181 27.9133 41.5843C28.0253 41.6962 28.1831 41.737 28.3561 41.798C28.3714 41.8031 28.3867 41.8031 28.3917 41.8082L28.9211 41.9762C29.4911 42.1645 29.7354 42.4088 29.7354 42.8618C29.7354 43.1519 29.6234 43.386 29.4046 43.5641C29.1857 43.7423 28.8905 43.8288 28.519 43.8288C28.3205 43.8288 28.1118 43.8084 27.898 43.7677C27.6843 43.7219 27.5061 43.6659 27.3586 43.5947L27.3993 43.2079C27.5469 43.2791 27.7199 43.3402 27.9235 43.386C28.1271 43.4318 28.3154 43.4522 28.4834 43.4522C28.9872 43.4522 29.3079 43.2384 29.3079 42.8719C29.3079 42.6073 29.1603 42.4597 28.7735 42.3375Z" fill="#363636"/>
<path opacity="0.5" d="M24.7535 43.4064V43.7779H22.28V40.4035H24.6975V40.775H22.6871V41.8591H24.438V42.2307H22.6871V43.4064H24.7535Z" fill="#363636"/>
<path opacity="0.5" d="M16.3512 43.7779V40.4035H17.7304C18.8603 40.4035 19.4355 41.0957 19.4355 42.0932C19.4355 43.1468 18.84 43.7779 17.7254 43.7779H16.3512ZM17.705 40.7801H16.7583V43.4013H17.705C18.5753 43.4013 19.0181 42.933 19.0181 42.0932C19.0181 41.2636 18.5651 40.7801 17.705 40.7801Z" fill="#363636"/>
<path opacity="0.5" d="M9.98788 43.7779H9.58071V42.2357H7.54996V43.7779H7.14279V40.4035H7.54996V41.8642H9.58071V40.4035H9.98788V43.7779Z" fill="#363636"/>
<path opacity="0.5" d="M3.66471 41.0398L2.32615 42.6176H2.22436L0.875613 41.0449V43.778H0.468445V40.4036H0.870523L2.27525 42.0832L3.67489 40.4036H4.07188V43.778H3.66471V41.0398Z" fill="#363636"/>
</svg>
