<svg width="24" height="24" viewBox="0 0 24 24" fill="none" xmlns="http://www.w3.org/2000/svg">
<path d="M7.75 0C7.02065 0 6.32118 0.289731 5.80546 0.805456C5.28973 1.32118 5 2.02065 5 2.75V21.25C5 21.9793 5.28973 22.6788 5.80546 23.1945C6.32118 23.7103 7.02065 24 7.75 24H16.25C16.9793 24 17.6788 23.7103 18.1945 23.1945C18.7103 22.6788 19 21.9793 19 21.25V2.75C19 2.02065 18.7103 1.32118 18.1945 0.805456C17.6788 0.289731 16.9793 0 16.25 0H7.75ZM6.5 2.75C6.5 2.06 7.06 1.5 7.75 1.5H16.25C16.94 1.5 17.5 2.06 17.5 2.75V21.25C17.5 21.94 16.94 22.5 16.25 22.5H7.75C7.06 22.5 6.5 21.94 6.5 21.25V2.75ZM10.25 19C10.0511 19 9.86032 19.079 9.71967 19.2197C9.57902 19.3603 9.5 19.5511 9.5 19.75C9.5 19.9489 9.57902 20.1397 9.71967 20.2803C9.86032 20.421 10.0511 20.5 10.25 20.5H13.75C13.9489 20.5 14.1397 20.421 14.2803 20.2803C14.421 20.1397 14.5 19.9489 14.5 19.75C14.5 19.5511 14.421 19.3603 14.2803 19.2197C14.1397 19.079 13.9489 19 13.75 19H10.25Z" fill="#363636"/>
</svg>
